<svg xmlns="http://www.w3.org/2000/svg" viewBox="4324 2012 78.119 70"><defs><style>.a{fill:none;clip-rule:evenodd}.d{clip-path:url(#b)}.e{fill:#3a3d40}</style><clipPath id="a"><path class="a" d="M71.177 44.922H6.942a1.892 1.892 0 0 1-1.867-1.87V.4h67.969v42.651a1.892 1.892 0 0 1-1.867 1.87M6.942-10.025h7.338v2.788A2.538 2.538 0 0 0 16.816-4.7a2.539 2.539 0 0 0 2.539-2.539v-2.788h9.751v2.788A2.539 2.539 0 0 0 31.645-4.7a2.538 2.538 0 0 0 2.536-2.539v-2.788h9.758v2.788A2.538 2.538 0 0 0 46.474-4.7a2.539 2.539 0 0 0 2.539-2.539v-2.788h9.751v2.788A2.539 2.539 0 0 0 61.3-4.7a2.538 2.538 0 0 0 2.536-2.539v-2.788h7.338a1.894 1.894 0 0 1 1.867 1.87V-2.4H5.075v-5.755a1.894 1.894 0 0 1 1.867-1.87M71.177-15.1h-7.338v-2.357A2.538 2.538 0 0 0 61.3-20a2.539 2.539 0 0 0-2.539 2.539v2.361h-9.747v-2.357A2.539 2.539 0 0 0 46.474-20a2.538 2.538 0 0 0-2.536 2.539v2.361h-9.757v-2.357A2.538 2.538 0 0 0 31.645-20a2.539 2.539 0 0 0-2.539 2.539v2.361h-9.751v-2.357A2.539 2.539 0 0 0 16.816-20a2.538 2.538 0 0 0-2.536 2.539v2.361H6.942A6.951 6.951 0 0 0 0-8.155v51.206A6.951 6.951 0 0 0 6.942 50h64.235a6.951 6.951 0 0 0 6.942-6.949V-8.155a6.951 6.951 0 0 0-6.942-6.945" transform="translate(0 20)"/></clipPath><clipPath id="b"><path d="M0 50.049h77.054V-20H0z" transform="translate(0 20)" fill="none"/></clipPath><clipPath id="c"><path class="a" d="M5.468-12.134a1.4 1.4 0 0 0-1.4 1.4v2.571a1.4 1.4 0 0 0 1.4 1.4 1.4 1.4 0 0 0 1.4-1.4v-2.571a1.4 1.4 0 0 0-1.4-1.4" transform="translate(-4.067 12.134)"/></clipPath><clipPath id="e"><path class="a" d="M8.814-12.134a1.4 1.4 0 0 0-1.4 1.4v2.571a1.4 1.4 0 0 0 1.4 1.4 1.4 1.4 0 0 0 1.4-1.4v-2.571a1.4 1.4 0 0 0-1.4-1.4" transform="translate(-7.413 12.134)"/></clipPath><clipPath id="g"><path class="a" d="M12.162-12.134a1.4 1.4 0 0 0-1.4 1.4v2.571a1.4 1.4 0 0 0 1.4 1.4 1.4 1.4 0 0 0 1.4-1.4v-2.571a1.4 1.4 0 0 0-1.4-1.4" transform="translate(-10.761 12.134)"/></clipPath><clipPath id="i"><path class="a" d="M15.51-6.762a1.4 1.4 0 0 0 1.4-1.4v-2.571a1.4 1.4 0 0 0-1.4-1.4 1.4 1.4 0 0 0-1.4 1.4v2.571a1.4 1.4 0 0 0 1.4 1.4" transform="translate(-14.109 12.135)"/></clipPath><clipPath id="k"><path class="a" d="M5.468-4.737a1.4 1.4 0 0 0-1.4 1.4v2.614a1.4 1.4 0 0 0 1.4 1.4 1.4 1.4 0 0 0 1.4-1.4v-2.613a1.4 1.4 0 0 0-1.4-1.4" transform="translate(-4.067 4.737)"/></clipPath><clipPath id="m"><path class="a" d="M8.814-4.737a1.4 1.4 0 0 0-1.4 1.4v2.614a1.4 1.4 0 0 0 1.4 1.4 1.4 1.4 0 0 0 1.4-1.4v-2.613a1.4 1.4 0 0 0-1.4-1.4" transform="translate(-7.413 4.737)"/></clipPath><clipPath id="o"><path class="a" d="M12.162-4.737a1.4 1.4 0 0 0-1.4 1.4v2.614a1.4 1.4 0 0 0 1.4 1.4 1.4 1.4 0 0 0 1.4-1.4v-2.613a1.4 1.4 0 0 0-1.4-1.4" transform="translate(-10.761 4.737)"/></clipPath><clipPath id="q"><path class="a" d="M18.839-12.146a1.4 1.4 0 0 0-1.4 1.4v2.571a1.4 1.4 0 0 0 1.4 1.4 1.4 1.4 0 0 0 1.4-1.4v-2.571a1.4 1.4 0 0 0-1.4-1.4" transform="translate(-17.438 12.146)"/></clipPath><clipPath id="s"><path class="a" d="M5.468-8.438a1.4 1.4 0 0 0-1.4 1.4v2.613a1.4 1.4 0 0 0 1.4 1.4 1.4 1.4 0 0 0 1.4-1.4v-2.612a1.4 1.4 0 0 0-1.4-1.4" transform="translate(-4.067 8.438)"/></clipPath><clipPath id="u"><path class="a" d="M22.091-.767a.73.73 0 0 1-.729.729h-5.1a.73.73 0 0 1-.729-.729v-5.082a.731.731 0 0 1 .729-.732h5.1a.731.731 0 0 1 .729.732zm-.728-8.613h-5.1a3.537 3.537 0 0 0-3.534 3.53v5.083a3.534 3.534 0 0 0 3.534 3.527h5.1A3.534 3.534 0 0 0 24.9-.767v-5.082a3.537 3.537 0 0 0-3.537-3.531z" transform="translate(-12.729 9.38)"/></clipPath><clipPath id="w"><path class="a" d="M18.838-8.438a1.4 1.4 0 0 0-1.4 1.4v2.613a1.4 1.4 0 0 0 1.4 1.4 1.4 1.4 0 0 0 1.4-1.4v-2.612a1.4 1.4 0 0 0-1.4-1.4" transform="translate(-17.437 8.438)"/></clipPath><clipPath id="y"><path class="a" d="M12.144-3.026a1.4 1.4 0 0 0 1.4-1.4V-7.04a1.4 1.4 0 0 0-1.4-1.4 1.4 1.4 0 0 0-1.4 1.4v2.613a1.4 1.4 0 0 0 1.4 1.4" transform="translate(-10.743 8.438)"/></clipPath><clipPath id="aa"><path class="a" d="M8.8-3.026a1.4 1.4 0 0 0 1.4-1.4V-7.04a1.4 1.4 0 0 0-1.4-1.4 1.4 1.4 0 0 0-1.4 1.4v2.613a1.4 1.4 0 0 0 1.4 1.4" transform="translate(-7.395 8.438)"/></clipPath></defs><g transform="translate(4324 2012)" clip-path="url(#a)"><g class="d"><path class="e" d="M-17.513 87.513H95.631V-17.512H-17.513z"/></g></g><g transform="translate(4338.243 2039.549)" clip-path="url(#c)"><g class="d"><path class="e" d="M-17.512 22.885h37.826v-40.4h-37.826z"/></g></g><g transform="translate(4349.964 2039.549)" clip-path="url(#e)"><g class="d"><path class="e" d="M-17.512 22.885h37.827v-40.4h-37.827z"/></g></g><g transform="translate(4361.689 2039.549)" clip-path="url(#g)"><g class="d"><path class="e" d="M-17.512 22.885h37.827v-40.4h-37.827z"/></g></g><g transform="translate(4373.414 2039.548)" clip-path="url(#i)"><g class="d"><path class="e" d="M-17.512 22.886h37.826v-40.4h-37.826z"/></g></g><g transform="translate(4338.243 2065.458)" clip-path="url(#k)"><g class="d"><path class="e" d="M-17.512 22.924h37.826v-40.437h-37.826z"/></g></g><g transform="translate(4349.964 2065.458)" clip-path="url(#m)"><g class="d"><path class="e" d="M-17.512 22.924h37.827v-40.437h-37.827z"/></g></g><g transform="translate(4361.689 2065.458)" clip-path="url(#o)"><g class="d"><path class="e" d="M-17.512 22.924h37.827v-40.437h-37.827z"/></g></g><g transform="translate(4385.074 2039.508)" clip-path="url(#q)"><g class="d"><path class="e" d="M-17.512 22.885h37.826v-40.4h-37.826z"/></g></g><g transform="translate(4338.243 2052.495)" clip-path="url(#s)"><g class="d"><path class="e" d="M-17.512 22.926h37.826v-40.438h-37.826z"/></g></g><g transform="translate(4368.583 2049.196)" clip-path="url(#u)"><g class="d"><path class="e" d="M-17.513 29.652h47.192v-47.164h-47.192z"/></g></g><g transform="translate(4385.071 2052.495)" clip-path="url(#w)"><g class="d"><path class="e" d="M-17.512 22.926h37.826v-40.438h-37.826z"/></g></g><g transform="translate(4361.624 2052.496)" clip-path="url(#y)"><g class="d"><path class="e" d="M-17.511 22.925h37.826v-40.438h-37.826z"/></g></g><g transform="translate(4349.899 2052.496)" clip-path="url(#aa)"><g class="d"><path class="e" d="M-17.512 22.925h37.826v-40.438h-37.826z"/></g></g></svg>