<svg xmlns="http://www.w3.org/2000/svg" viewBox="3943 2012 57.284 70"><defs><style>.a,.b{fill:none}.a{clip-rule:evenodd}</style><clipPath id="a"><path class="a" d="M0-27h57.285v70H0z" transform="translate(0 27)"/></clipPath><clipPath id="b"><path class="b" d="M0 0h62.191v72.556H0z"/></clipPath><clipPath id="c"><path class="a" d="M49.471-3.4l-.749 1.07c-2.617 3.812-3.444 3.4-6.932 1.666a36.917 36.917 0 0 0-3.97-1.767 1.872 1.872 0 0 0-2.322.92C34.951-.428 30.131 9.17 29.32 11.85a1.877 1.877 0 0 0 1.122 2.3l13.252 5.1c.956.661.972 1.573.547 4.128-.067.409-.135.816-.189 1.22-.43 3.169-2.192 12.666-2.866 13.887a2.306 2.306 0 0 1-.824.656l-.8.122h-.016a2.209 2.209 0 0 1-1.848-.954c-.505-.961.386-5.333.863-7.683.6-2.959 1.125-5.517.873-7.186a1.877 1.877 0 0 0-1.158-1.467L28.132 17.9a1.856 1.856 0 0 0-.7-.137 1.884 1.884 0 0 0-1.754 1.208L20.8 31.7c-.689 1.951-2.1 2-7.173.259-.9-.311-1.78-.609-2.6-.834L9.752 30.8a37.67 37.67 0 0 1-5.019-1.5 2.137 2.137 0 0 1-.865-.964l-.127-.821a2.016 2.016 0 0 1 .547-1.438c.868-.876 1.985-.7 4.151-.117.378.1.751.2 1.109.282l1.337.3a47.01 47.01 0 0 1 4.714 1.2 1.858 1.858 0 0 0 1.482-.1 1.878 1.878 0 0 0 .943-1.153L25.756-.535a1.887 1.887 0 0 0-.438-1.8 1.885 1.885 0 0 0-1.775-.547c-1.557.345-3.117.637-4.359.873l-1.062.2c-2.783.539-2.983 2.622-3.208 5.04-.049.51-.1 1.1-.184 1.778-.469 4.016-1.057 4.382-1.778 4.447-.448.034-1.241.052-1.55-.28-.808-.868-.267-4.2-.039-5.62.454-2.793.937-5.456 1.193-6.763.251-1.277 2.682-1.925 5.03-2.55l1.057-.285c2.5-.689 6.144-1.669 8.919-2.192 2.527-.482 6.789 1.005 10.212 2.2 1.687.588 3.281 1.143 4.68 1.493 2.674.663 4.294-2.021 5.856-4.623.99-1.643 2.343-3.9 3.413-4.125.1-.018.4-.088 1 .329a1.663 1.663 0 0 1 .772 1.119c.386 2.174-2.376 6.095-4.024 8.437m-16.62-19.839a5.67 5.67 0 0 1 5.665 5.665 5.67 5.67 0 0 1-5.665 5.665 5.67 5.67 0 0 1-5.662-5.665 5.67 5.67 0 0 1 5.662-5.665M57.193-12.5a5.405 5.405 0 0 0-2.335-3.55 4.9 4.9 0 0 0-3.928-.915c-2.659.573-4.348 3.384-5.841 5.864a15.2 15.2 0 0 1-1.975 2.848c-1.184-.314-2.6-.808-4.1-1.329-.259-.091-.523-.184-.788-.275a9.4 9.4 0 0 0 4.053-7.722A9.434 9.434 0 0 0 32.851-27a9.432 9.432 0 0 0-9.419 9.422 9.334 9.334 0 0 0 2.151 5.921c-2.672.57-5.732 1.384-7.94 1.993l-1.021.275c-3.306.881-7.051 1.876-7.751 5.46C8.609-2.6 8.117.11 7.656 2.952c-.539 3.322-.9 6.735.992 8.777a5.344 5.344 0 0 0 4.628 1.471c4.325-.373 4.864-4.993 5.188-7.75.08-.71.14-1.329.189-1.866.062-.637.127-1.342.207-1.705l1.024-.2c.433-.08.907-.171 1.4-.267l-6.352 22.214c-1.052-.272-2.187-.523-3.239-.754l-1.309-.293c-.314-.073-.643-.161-.977-.251-2.1-.562-5.284-1.412-7.782 1.1A5.871 5.871 0 0 0 0 27.777l.192 1.3a5.733 5.733 0 0 0 2.633 3.454 29.081 29.081 0 0 0 6 1.9l1.21.314c.744.2 1.547.482 2.371.764 3.677 1.267 9.836 3.377 11.914-2.509l4.185-10.9 7.219 2.894a48.615 48.615 0 0 1-.837 4.879c-1.062 5.214-1.614 8.517-.337 10.474A6.061 6.061 0 0 0 39.736 43h.1l1.278-.192a5.812 5.812 0 0 0 2.99-1.956c1.645-2.024 3.654-15.618 3.672-15.752.052-.368.114-.739.174-1.109.417-2.5.985-5.929-2.4-8.025a1.858 1.858 0 0 0-.314-.155l-11.684-4.5c1.081-2.542 3.169-6.833 4.535-9.585.733.324 1.41.661 2.039.972 3.721 1.853 7.235 3.6 11.7-2.9l.723-1.034c2.241-3.185 5.312-7.543 4.651-11.259" transform="translate(0 27)"/></clipPath><clipPath id="d"><path class="b" d="M0 42.964h59.6V-27H0z" transform="translate(0 27)"/></clipPath></defs><g transform="translate(3943 2012)" clip-path="url(#a)"><g transform="translate(-2.592 -.001)" clip-path="url(#b)"><g transform="translate(2.592)" clip-path="url(#c)"><g transform="translate(-.001)" clip-path="url(#d)"><path d="M-12.956 82.957h83.2v-95.913h-83.2z" fill="#3a3d40"/></g></g></g></g></svg>