<svg xmlns="http://www.w3.org/2000/svg" viewBox="3519 2012 56.261 70"><defs><style>.a{fill:none;clip-rule:evenodd}.c{fill:#3a3d40}</style><clipPath id="a"><path class="a" d="M10.628-14.1a2.24 2.24 0 0 0 2.238-2.238v-4.424A2.24 2.24 0 0 0 10.628-23a2.24 2.24 0 0 0-2.238 2.238v4.424a2.24 2.24 0 0 0 2.238 2.238" transform="translate(-8.39 23)"/></clipPath><clipPath id="b"><path class="a" d="M7.7-14.765a2.235 2.235 0 0 0 1.673.75 2.235 2.235 0 0 0 1.488-.568 2.24 2.24 0 0 0 .182-3.161L8.024-21.13a2.242 2.242 0 0 0-3.158-.182 2.241 2.241 0 0 0-.185 3.161z" transform="translate(-4.116 21.877)"/></clipPath><clipPath id="c"><path class="a" d="M13.923-14.015a2.235 2.235 0 0 0 1.673-.75l3.019-3.386a2.241 2.241 0 0 0-.185-3.161 2.243 2.243 0 0 0-3.158.182l-3.019 3.386a2.24 2.24 0 0 0 .182 3.161 2.235 2.235 0 0 0 1.488.568" transform="translate(-11.686 21.877)"/></clipPath><clipPath id="d"><path class="a" d="M46.656 9.423a16.591 16.591 0 0 0-1.565-1.846c-.028-.028-.052-.056-.08-.083-3.019-3.034-7.22-4.9-12.527-5.559a24.038 24.038 0 0 1-10.436-3.594 15.1 15.1 0 0 1-3.927-3.769c-.722-1.022-2.72-3.945-1.9-5.217 1.179-1.849 6.649-3.423 13.3-3.825 6.581-.4 13.308 1.4 16.719 4.495 3.4 3.078 5.627 11.452 5.547 20.84a51.332 51.332 0 0 1-1.232 11.017c-.265-5.1-1.568-9.264-3.9-12.459M45.277 32.6c-.194.161-.806.59-1.506 1.04a27.157 27.157 0 0 0-2.732-1.426 15.164 15.164 0 0 0 3.377-4.1 22.887 22.887 0 0 0 1.719-4.72 49.328 49.328 0 0 1-.858 9.2m-17.861 1.579c-4.309 0-11.915-4.97-12.885-7.788-2.825-8.23-.077-18.1 3.155-25.587a30.022 30.022 0 0 0 14.249 5.578c4.149.512 7.313 1.821 9.6 3.979A22.045 22.045 0 0 1 40.418 26.1c-1.423 2.824-8.662 8.072-13 8.072m-15.083-.756c-3.987-3.571-9.584-19.453-7.383-31.18 1.328-7.062 4.967-8.418 7.363-8.618A12.678 12.678 0 0 0 14.3-2.595c-5.405 11.789-6.791 22.3-4 30.43a11.822 11.822 0 0 0 3.306 4.488 13.489 13.489 0 0 0-1.272 1.093m36.91-46.708c-4.312-3.908-12.141-6.1-20-5.649-5.069.309-13.99 1.482-16.8 5.884a5.561 5.561 0 0 0-.84 2.269c-5.8.664-9.681 4.908-11.051 12.2-2.528 13.477 4.007 34.527 11.465 36.925a2.244 2.244 0 0 0 1.973-.3 4.413 4.413 0 0 0 .682-.642 7.226 7.226 0 0 1 2.815-2.173c3.257 2.01 7 3.423 9.927 3.423 2.716 0 6.056-1.278 9.085-3.1a13.3 13.3 0 0 1 5.18 2.05c.46.269.852.494 1.161.642a2.23 2.23 0 0 0 2.108-.074 29.331 29.331 0 0 0 3.3-2.216c.225-.2.448-.407.667-.627l.049-.052c4.495-4.565 7.2-13.561 7.3-24.374.071-8.554-1.735-19.407-7.017-24.192" transform="translate(0 18.999)"/></clipPath><clipPath id="e"><path class="a" d="M17.035-4.3A5.153 5.153 0 0 1 13.2-2.038 5.375 5.375 0 0 1 9.117-4a1.239 1.239 0 0 0-1.744-.127 1.24 1.24 0 0 0-.127 1.744A7.818 7.818 0 0 0 13.2.432 7.368 7.368 0 0 0 19-2.807a1.232 1.232 0 0 0-.238-1.729 1.226 1.226 0 0 0-1.729.238" transform="translate(-6.946 4.789)"/></clipPath><clipPath id="f"><path class="a" d="M11.078-5.444a1.232 1.232 0 0 0 1.062.6 1.226 1.226 0 0 0 .63-.173 1.237 1.237 0 0 0 .43-1.69c-1.261-2.114-2.681-2.568-3.65-2.574h-.018a4.77 4.77 0 0 0-3.837 2.559 1.231 1.231 0 0 0 .407 1.7 1.237 1.237 0 0 0 1.7-.407c.5-.815 1.247-1.5 1.735-1.38.639.006 1.241.858 1.543 1.367" transform="translate(-5.511 9.281)"/></clipPath><clipPath id="g"><path class="a" d="M13.644-9.281c-.966.006-2.386.457-3.649 2.571a1.237 1.237 0 0 0 .429 1.695 1.234 1.234 0 0 0 .63.173 1.232 1.232 0 0 0 1.062-.6c.306-.509.908-1.364 1.543-1.367h.006A2.57 2.57 0 0 1 15.4-5.431a1.234 1.234 0 0 0 1.7.407 1.237 1.237 0 0 0 .407-1.7 4.761 4.761 0 0 0-3.859-2.559" transform="translate(-9.821 9.281)"/></clipPath></defs><g transform="translate(3544.898 2012)" clip-path="url(#a)"><path class="c" d="M-15.434 24.334h35.345v-39.768h-35.345z"/></g><g transform="translate(3531.705 2015.468)" clip-path="url(#b)"><path class="c" d="M-15.434 23.296h38.363v-38.731h-38.363z"/></g><g transform="translate(3555.072 2015.467)" clip-path="url(#c)"><path class="c" d="M-15.434 23.296h38.363v-38.731h-38.363z"/></g><g transform="translate(3519 2024.352)" clip-path="url(#d)"><path class="c" d="M-15.435 73.082h87.131v-88.518h-87.131z"/></g><g transform="translate(3540.442 2068.215)" clip-path="url(#e)"><path class="c" d="M-15.435 20.655h43.176v-36.089h-43.176z"/></g><g transform="translate(3536.012 2054.349)" clip-path="url(#f)"><path class="c" d="M-15.435 19.874h38.732v-35.308h-38.732z"/></g><g transform="translate(3549.315 2054.35)" clip-path="url(#g)"><path class="c" d="M-15.434 19.874h38.732v-35.309h-38.732z"/></g></svg>